<mxfile host="app.diagrams.net" agent="Mozilla/5.0 (Windows NT 10.0; Win64; x64) AppleWebKit/537.36 (KHTML, like Gecko) Chrome/130.0.0.0 Safari/537.36" version="24.8.3">
  <diagram id="C5RBs43oDa-KdzZeNtuy" name="Page-1">
    <mxGraphModel dx="880" dy="478" grid="1" gridSize="10" guides="1" tooltips="1" connect="1" arrows="1" fold="1" page="1" pageScale="1" pageWidth="827" pageHeight="1169" math="0" shadow="0">
      <root>
        <mxCell id="WIyWlLk6GJQsqaUBKTNV-0" />
        <mxCell id="WIyWlLk6GJQsqaUBKTNV-1" parent="WIyWlLk6GJQsqaUBKTNV-0" />
        <mxCell id="AUlWfMTpm140idI0EFFj-66" value="Mulai Program" style="rounded=1;arcSize=40;strokeWidth=2" vertex="1" parent="WIyWlLk6GJQsqaUBKTNV-1">
          <mxGeometry x="377" y="20" width="129" height="52" as="geometry" />
        </mxCell>
        <mxCell id="AUlWfMTpm140idI0EFFj-67" value="Inisialisasi LED dan Serial Monitor" style="rounded=1;arcSize=40;strokeWidth=2" vertex="1" parent="WIyWlLk6GJQsqaUBKTNV-1">
          <mxGeometry x="338" y="122" width="207" height="70" as="geometry" />
        </mxCell>
        <mxCell id="AUlWfMTpm140idI0EFFj-68" value="Menghubungkan ke WiFi" style="rounded=1;arcSize=40;strokeWidth=2" vertex="1" parent="WIyWlLk6GJQsqaUBKTNV-1">
          <mxGeometry x="341" y="242" width="200" height="52" as="geometry" />
        </mxCell>
        <mxCell id="AUlWfMTpm140idI0EFFj-69" value="Tampilkan IP Address Lokal" style="rounded=1;arcSize=40;strokeWidth=2" vertex="1" parent="WIyWlLk6GJQsqaUBKTNV-1">
          <mxGeometry x="173" y="370" width="218" height="52" as="geometry" />
        </mxCell>
        <mxCell id="AUlWfMTpm140idI0EFFj-70" value="Inisialisasi Web Server" style="rounded=1;arcSize=40;strokeWidth=2" vertex="1" parent="WIyWlLk6GJQsqaUBKTNV-1">
          <mxGeometry x="188" y="498" width="189" height="52" as="geometry" />
        </mxCell>
        <mxCell id="AUlWfMTpm140idI0EFFj-71" value="Loop Utama" style="rhombus;strokeWidth=2;whiteSpace=wrap;" vertex="1" parent="WIyWlLk6GJQsqaUBKTNV-1">
          <mxGeometry x="214" y="600" width="137" height="137" as="geometry" />
        </mxCell>
        <mxCell id="AUlWfMTpm140idI0EFFj-72" value="Menangani Permintaan Klien" style="rounded=1;arcSize=40;strokeWidth=2" vertex="1" parent="WIyWlLk6GJQsqaUBKTNV-1">
          <mxGeometry x="20" y="787" width="227" height="52" as="geometry" />
        </mxCell>
        <mxCell id="AUlWfMTpm140idI0EFFj-73" value="Rute Halaman Utama" style="rhombus;strokeWidth=2;whiteSpace=wrap;" vertex="1" parent="WIyWlLk6GJQsqaUBKTNV-1">
          <mxGeometry x="35" y="889" width="198" height="198" as="geometry" />
        </mxCell>
        <mxCell id="AUlWfMTpm140idI0EFFj-74" value="Tampilkan Halaman HTML dengan Slider" style="rounded=1;arcSize=40;strokeWidth=2" vertex="1" parent="WIyWlLk6GJQsqaUBKTNV-1">
          <mxGeometry x="86" y="1137" width="207" height="70" as="geometry" />
        </mxCell>
        <mxCell id="AUlWfMTpm140idI0EFFj-75" value="Rute /setBrightness" style="rhombus;strokeWidth=2;whiteSpace=wrap;" vertex="1" parent="WIyWlLk6GJQsqaUBKTNV-1">
          <mxGeometry x="373" y="893" width="190" height="190" as="geometry" />
        </mxCell>
        <mxCell id="AUlWfMTpm140idI0EFFj-76" value="Baca Nilai Parameter &#39;value&#39;" style="rounded=1;arcSize=40;strokeWidth=2" vertex="1" parent="WIyWlLk6GJQsqaUBKTNV-1">
          <mxGeometry x="379" y="1137" width="178" height="70" as="geometry" />
        </mxCell>
        <mxCell id="AUlWfMTpm140idI0EFFj-77" value="Konversi Nilai ke Integer" style="rounded=1;arcSize=40;strokeWidth=2" vertex="1" parent="WIyWlLk6GJQsqaUBKTNV-1">
          <mxGeometry x="366" y="1256" width="205" height="52" as="geometry" />
        </mxCell>
        <mxCell id="AUlWfMTpm140idI0EFFj-78" value="Atur PWM LED Sesuai Nilai Slider" style="rounded=1;arcSize=40;strokeWidth=2" vertex="1" parent="WIyWlLk6GJQsqaUBKTNV-1">
          <mxGeometry x="360" y="1358" width="217" height="70" as="geometry" />
        </mxCell>
        <mxCell id="AUlWfMTpm140idI0EFFj-79" value="Tampilkan Brightness di Serial Monitor" style="rounded=1;arcSize=40;strokeWidth=2" vertex="1" parent="WIyWlLk6GJQsqaUBKTNV-1">
          <mxGeometry x="370" y="1478" width="196" height="70" as="geometry" />
        </mxCell>
        <mxCell id="AUlWfMTpm140idI0EFFj-80" value="" style="whiteSpace=wrap;strokeWidth=2;" vertex="1" parent="WIyWlLk6GJQsqaUBKTNV-1">
          <mxGeometry x="441" y="396" as="geometry" />
        </mxCell>
        <mxCell id="AUlWfMTpm140idI0EFFj-81" value="" style="whiteSpace=wrap;strokeWidth=2;" vertex="1" parent="WIyWlLk6GJQsqaUBKTNV-1">
          <mxGeometry x="462" y="524" as="geometry" />
        </mxCell>
        <mxCell id="AUlWfMTpm140idI0EFFj-82" value="" style="curved=1;startArrow=none;endArrow=block;exitX=0.5;exitY=1;entryX=0.5;entryY=0;rounded=0;" edge="1" parent="WIyWlLk6GJQsqaUBKTNV-1" source="AUlWfMTpm140idI0EFFj-66" target="AUlWfMTpm140idI0EFFj-67">
          <mxGeometry relative="1" as="geometry">
            <Array as="points" />
          </mxGeometry>
        </mxCell>
        <mxCell id="AUlWfMTpm140idI0EFFj-83" value="" style="curved=1;startArrow=none;endArrow=block;exitX=0.5;exitY=0.99;entryX=0.5;entryY=-0.01;rounded=0;" edge="1" parent="WIyWlLk6GJQsqaUBKTNV-1" source="AUlWfMTpm140idI0EFFj-67" target="AUlWfMTpm140idI0EFFj-68">
          <mxGeometry relative="1" as="geometry">
            <Array as="points" />
          </mxGeometry>
        </mxCell>
        <mxCell id="AUlWfMTpm140idI0EFFj-84" value="Berhasil" style="curved=1;startArrow=none;endArrow=block;exitX=0.18;exitY=0.99;entryX=0.5;entryY=-0.01;rounded=0;" edge="1" parent="WIyWlLk6GJQsqaUBKTNV-1" source="AUlWfMTpm140idI0EFFj-68" target="AUlWfMTpm140idI0EFFj-69">
          <mxGeometry relative="1" as="geometry">
            <Array as="points">
              <mxPoint x="282" y="332" />
            </Array>
          </mxGeometry>
        </mxCell>
        <mxCell id="AUlWfMTpm140idI0EFFj-85" value="" style="curved=1;startArrow=none;endArrow=none;exitX=0.5;exitY=0.99;entryX=Infinity;entryY=-Infinity;rounded=0;" edge="1" parent="WIyWlLk6GJQsqaUBKTNV-1" source="AUlWfMTpm140idI0EFFj-68" target="AUlWfMTpm140idI0EFFj-80">
          <mxGeometry relative="1" as="geometry">
            <Array as="points" />
          </mxGeometry>
        </mxCell>
        <mxCell id="AUlWfMTpm140idI0EFFj-86" value="Gagal" style="curved=1;startArrow=none;endArrow=none;exitX=Infinity;exitY=-Infinity;entryX=-Infinity;entryY=-Infinity;rounded=0;" edge="1" parent="WIyWlLk6GJQsqaUBKTNV-1" source="AUlWfMTpm140idI0EFFj-80" target="AUlWfMTpm140idI0EFFj-81">
          <mxGeometry relative="1" as="geometry">
            <Array as="points">
              <mxPoint x="441" y="460" />
            </Array>
          </mxGeometry>
        </mxCell>
        <mxCell id="AUlWfMTpm140idI0EFFj-87" value="" style="curved=1;startArrow=none;endArrow=block;exitX=-Infinity;exitY=-Infinity;entryX=0.58;entryY=0.99;rounded=0;" edge="1" parent="WIyWlLk6GJQsqaUBKTNV-1" source="AUlWfMTpm140idI0EFFj-81" target="AUlWfMTpm140idI0EFFj-68">
          <mxGeometry relative="1" as="geometry">
            <Array as="points">
              <mxPoint x="483" y="460" />
              <mxPoint x="483" y="332" />
            </Array>
          </mxGeometry>
        </mxCell>
        <mxCell id="AUlWfMTpm140idI0EFFj-88" value="" style="curved=1;startArrow=none;endArrow=block;exitX=0.5;exitY=0.99;entryX=0.5;entryY=-0.01;rounded=0;" edge="1" parent="WIyWlLk6GJQsqaUBKTNV-1" source="AUlWfMTpm140idI0EFFj-69" target="AUlWfMTpm140idI0EFFj-70">
          <mxGeometry relative="1" as="geometry">
            <Array as="points" />
          </mxGeometry>
        </mxCell>
        <mxCell id="AUlWfMTpm140idI0EFFj-89" value="" style="curved=1;startArrow=none;endArrow=block;exitX=0.5;exitY=0.99;entryX=0.5;entryY=0;rounded=0;" edge="1" parent="WIyWlLk6GJQsqaUBKTNV-1" source="AUlWfMTpm140idI0EFFj-70" target="AUlWfMTpm140idI0EFFj-71">
          <mxGeometry relative="1" as="geometry">
            <Array as="points" />
          </mxGeometry>
        </mxCell>
        <mxCell id="AUlWfMTpm140idI0EFFj-90" value="" style="curved=1;startArrow=none;endArrow=block;exitX=0;exitY=0.81;entryX=0.5;entryY=-0.01;rounded=0;" edge="1" parent="WIyWlLk6GJQsqaUBKTNV-1" source="AUlWfMTpm140idI0EFFj-71" target="AUlWfMTpm140idI0EFFj-72">
          <mxGeometry relative="1" as="geometry">
            <Array as="points">
              <mxPoint x="134" y="762" />
            </Array>
          </mxGeometry>
        </mxCell>
        <mxCell id="AUlWfMTpm140idI0EFFj-91" value="" style="curved=1;startArrow=none;endArrow=block;exitX=0.5;exitY=0.99;entryX=0.5;entryY=0;rounded=0;" edge="1" parent="WIyWlLk6GJQsqaUBKTNV-1" source="AUlWfMTpm140idI0EFFj-72" target="AUlWfMTpm140idI0EFFj-73">
          <mxGeometry relative="1" as="geometry">
            <Array as="points" />
          </mxGeometry>
        </mxCell>
        <mxCell id="AUlWfMTpm140idI0EFFj-92" value="" style="curved=1;startArrow=none;endArrow=block;exitX=0.5;exitY=1;entryX=0.34;entryY=-0.01;rounded=0;" edge="1" parent="WIyWlLk6GJQsqaUBKTNV-1" source="AUlWfMTpm140idI0EFFj-73" target="AUlWfMTpm140idI0EFFj-74">
          <mxGeometry relative="1" as="geometry">
            <Array as="points">
              <mxPoint x="134" y="1112" />
            </Array>
          </mxGeometry>
        </mxCell>
        <mxCell id="AUlWfMTpm140idI0EFFj-93" value="" style="curved=1;startArrow=none;endArrow=block;exitX=1;exitY=0.82;entryX=0.5;entryY=0;rounded=0;" edge="1" parent="WIyWlLk6GJQsqaUBKTNV-1" source="AUlWfMTpm140idI0EFFj-72" target="AUlWfMTpm140idI0EFFj-75">
          <mxGeometry relative="1" as="geometry">
            <Array as="points">
              <mxPoint x="468" y="864" />
            </Array>
          </mxGeometry>
        </mxCell>
        <mxCell id="AUlWfMTpm140idI0EFFj-94" value="" style="curved=1;startArrow=none;endArrow=block;exitX=0.5;exitY=1;entryX=0.5;entryY=-0.01;rounded=0;" edge="1" parent="WIyWlLk6GJQsqaUBKTNV-1" source="AUlWfMTpm140idI0EFFj-75" target="AUlWfMTpm140idI0EFFj-76">
          <mxGeometry relative="1" as="geometry">
            <Array as="points" />
          </mxGeometry>
        </mxCell>
        <mxCell id="AUlWfMTpm140idI0EFFj-95" value="" style="curved=1;startArrow=none;endArrow=block;exitX=0.5;exitY=0.99;entryX=0.5;entryY=0;rounded=0;" edge="1" parent="WIyWlLk6GJQsqaUBKTNV-1" source="AUlWfMTpm140idI0EFFj-76" target="AUlWfMTpm140idI0EFFj-77">
          <mxGeometry relative="1" as="geometry">
            <Array as="points" />
          </mxGeometry>
        </mxCell>
        <mxCell id="AUlWfMTpm140idI0EFFj-96" value="" style="curved=1;startArrow=none;endArrow=block;exitX=0.5;exitY=1;entryX=0.5;entryY=0;rounded=0;" edge="1" parent="WIyWlLk6GJQsqaUBKTNV-1" source="AUlWfMTpm140idI0EFFj-77" target="AUlWfMTpm140idI0EFFj-78">
          <mxGeometry relative="1" as="geometry">
            <Array as="points" />
          </mxGeometry>
        </mxCell>
        <mxCell id="AUlWfMTpm140idI0EFFj-97" value="" style="curved=1;startArrow=none;endArrow=block;exitX=0.5;exitY=1;entryX=0.5;entryY=0;rounded=0;" edge="1" parent="WIyWlLk6GJQsqaUBKTNV-1" source="AUlWfMTpm140idI0EFFj-78" target="AUlWfMTpm140idI0EFFj-79">
          <mxGeometry relative="1" as="geometry">
            <Array as="points" />
          </mxGeometry>
        </mxCell>
        <mxCell id="AUlWfMTpm140idI0EFFj-98" value="" style="curved=1;startArrow=none;endArrow=block;exitX=0.76;exitY=-0.01;entryX=0.5;entryY=1;rounded=0;" edge="1" parent="WIyWlLk6GJQsqaUBKTNV-1" source="AUlWfMTpm140idI0EFFj-74" target="AUlWfMTpm140idI0EFFj-71">
          <mxGeometry relative="1" as="geometry">
            <Array as="points">
              <mxPoint x="282" y="1112" />
            </Array>
          </mxGeometry>
        </mxCell>
        <mxCell id="AUlWfMTpm140idI0EFFj-99" value="" style="curved=1;startArrow=none;endArrow=block;exitX=0.93;exitY=0;entryX=1;entryY=0.64;rounded=0;" edge="1" parent="WIyWlLk6GJQsqaUBKTNV-1" source="AUlWfMTpm140idI0EFFj-79" target="AUlWfMTpm140idI0EFFj-71">
          <mxGeometry relative="1" as="geometry">
            <Array as="points">
              <mxPoint x="612" y="1453" />
              <mxPoint x="612" y="762" />
            </Array>
          </mxGeometry>
        </mxCell>
      </root>
    </mxGraphModel>
  </diagram>
</mxfile>
